<svg xmlns="http://www.w3.org/2000/svg" xmlns:xlink="http://www.w3.org/1999/xlink" viewBox="0 0 30 30"><defs><style>.cls-1{fill:url(#linear-gradient);}.cls-2{fill:url(#linear-gradient-2);}.cls-3{fill:url(#linear-gradient-3);}</style><linearGradient id="linear-gradient" y1="15" x2="30" y2="15" gradientUnits="userSpaceOnUse"><stop offset="0" stop-color="#553b94"/><stop offset="0.52" stop-color="#563c96"/><stop offset="0.71" stop-color="#5a3e9d"/><stop offset="0.84" stop-color="#6143a8"/><stop offset="0.95" stop-color="#6b4ab9"/><stop offset="1" stop-color="#724ec4"/></linearGradient><linearGradient id="linear-gradient-2" x1="4.29" y1="15" x2="24.56" y2="15" gradientUnits="userSpaceOnUse"><stop offset="0" stop-color="#a6e0d4"/><stop offset="0.57" stop-color="#a7e2d6"/><stop offset="0.77" stop-color="#ace9db"/><stop offset="0.92" stop-color="#b3f4e4"/><stop offset="1" stop-color="#baffed"/></linearGradient><linearGradient id="linear-gradient-3" x1="4.29" y1="15" x2="21.1" y2="15" gradientUnits="userSpaceOnUse"><stop offset="0" stop-color="#369cf6"/><stop offset="0.11" stop-color="#368bf6"/><stop offset="0.25" stop-color="#3680f6"/><stop offset="0.45" stop-color="#3679f6"/><stop offset="1" stop-color="#3677f6"/></linearGradient></defs><title>Asset 1</title><g id="Layer_2" data-name="Layer 2"><g id="Layer_1-2" data-name="Layer 1"><path class="cls-1" d="M0,0H15a15,15,0,0,1,0,30H0Z"/><path class="cls-2" d="M4.29,4.87H14.42a10.13,10.13,0,1,1,0,20.26H4.29Z"/><path class="cls-3" d="M21.1,7.38A9.46,9.46,0,0,0,15.68,5L9.13,13.1V4.87H4.29V25.13H9.13V17l6.55,8.07A7.44,7.44,0,0,0,21,22.79l-6.14-7.73S21.1,7.43,21.1,7.38Z"/></g></g></svg>